<svg width="20" height="20" viewBox="0 0 20 20" fill="none" xmlns="http://www.w3.org/2000/svg">
<path d="M9.16675 14.167H10.8334V10.8337H14.1667V9.16699H10.8334V5.83366H9.16675V9.16699H5.83342V10.8337H9.16675V14.167ZM10.0001 18.3337C8.8473 18.3337 7.76397 18.1184 6.75008 17.6878C5.73619 17.2434 4.85425 16.6462 4.10425 15.8962C3.35425 15.1462 2.75703 14.2642 2.31258 13.2503C1.88203 12.2364 1.66675 11.1531 1.66675 10.0003C1.66675 8.84755 1.88203 7.76421 2.31258 6.75033C2.75703 5.73644 3.35425 4.85449 4.10425 4.10449C4.85425 3.35449 5.73619 2.76421 6.75008 2.33366C7.76397 1.88921 8.8473 1.66699 10.0001 1.66699C11.1529 1.66699 12.2362 1.88921 13.2501 2.33366C14.264 2.76421 15.1459 3.35449 15.8959 4.10449C16.6459 4.85449 17.2362 5.73644 17.6667 6.75033C18.1112 7.76421 18.3334 8.84755 18.3334 10.0003C18.3334 11.1531 18.1112 12.2364 17.6667 13.2503C17.2362 14.2642 16.6459 15.1462 15.8959 15.8962C15.1459 16.6462 14.264 17.2434 13.2501 17.6878C12.2362 18.1184 11.1529 18.3337 10.0001 18.3337ZM10.0001 16.667C11.8612 16.667 13.4376 16.0212 14.7292 14.7295C16.0209 13.4378 16.6667 11.8614 16.6667 10.0003C16.6667 8.13921 16.0209 6.56283 14.7292 5.27116C13.4376 3.97949 11.8612 3.33366 10.0001 3.33366C8.13897 3.33366 6.56258 3.97949 5.27091 5.27116C3.97925 6.56283 3.33341 8.13921 3.33341 10.0003C3.33341 11.8614 3.97925 13.4378 5.27091 14.7295C6.56258 16.0212 8.13897 16.667 10.0001 16.667Z" fill="#F0F4FF"/>
</svg>
