<svg width="24" height="24" viewBox="0 0 24 24" fill="none" xmlns="http://www.w3.org/2000/svg">
<g clip-path="url(#clip0_715_13729)">
<path d="M23.2969 11.297H22.8702V11.247C22.8702 9.49121 21.8835 8.08057 20.5979 7.35712C21.2975 6.74463 21.7407 5.84613 21.7407 4.84546C21.7407 3.00433 20.2427 1.50635 18.4016 1.50635C16.5604 1.50635 15.0624 3.00433 15.0624 4.84546C15.0624 5.84613 15.5056 6.74463 16.205 7.35712C14.9165 8.08185 13.9329 9.49597 13.9329 11.247V11.297H7.71149C7.06567 10.824 6.27026 10.5439 5.41022 10.5439C3.25763 10.5439 1.50623 12.2951 1.50623 14.4479C1.50623 15.7159 2.11432 16.8444 3.05402 17.5579C1.24255 18.4859 0 20.3726 0 22.5439V23.297C0 23.6854 0.314758 24.0001 0.703125 24.0001H10.4938C10.8821 24.0001 11.1969 23.6854 11.1969 23.297V22.5439C11.1969 22.0041 11.1198 21.4819 10.9766 20.9877H22.5938V21.7908C22.5938 22.179 22.9085 22.4939 23.2969 22.4939C23.6852 22.4939 24 22.179 24 21.7908V12.0001C24 11.6118 23.6852 11.297 23.2969 11.297ZM16.4687 4.84546C16.4687 3.77979 17.3357 2.9126 18.4016 2.9126C19.4672 2.9126 20.3344 3.77979 20.3344 4.84546C20.3344 5.91113 19.4674 6.77832 18.4016 6.77832C17.3359 6.77832 16.4687 5.91113 16.4687 4.84546ZM15.3391 11.247C15.3391 9.52893 16.7379 8.18457 18.4016 8.18457C20.0605 8.18457 21.464 9.52399 21.464 11.247V11.297H15.3391V11.247ZM5.41022 11.9501C6.78735 11.9501 7.90778 13.0706 7.90778 14.4479C7.90778 15.825 6.78735 16.9454 5.41022 16.9454C4.0329 16.9454 2.91248 15.825 2.91248 14.4479C2.91248 13.0706 4.0329 11.9501 5.41022 11.9501ZM9.79065 22.5939H1.40625V22.5439C1.40625 20.2324 3.28693 18.3517 5.59845 18.3517C7.90997 18.3517 9.79065 20.2324 9.79065 22.5439V22.5939ZM7.90869 17.4446C8.76691 16.7279 9.31403 15.6507 9.31403 14.4479C9.31403 13.8209 9.16479 13.2288 8.90112 12.7032H22.5938V19.5814H10.3467C9.76392 18.6509 8.91577 17.9027 7.90869 17.4446Z" fill="#6C767F"/>
<path d="M2.586 9.31403H12.7531C13.3134 9.31403 13.6494 8.68781 13.3381 8.22089L11.95 6.13879V2.586C11.95 1.16858 10.8065 0 9.36402 0H2.586C1.15118 0 0 1.16144 0 2.586V6.72821C0 8.14948 1.14697 9.31403 2.586 9.31403ZM1.40625 2.586C1.40625 1.94238 1.92407 1.40625 2.586 1.40625H9.36402C10.0194 1.40625 10.5438 1.93359 10.5438 2.586V6.35156C10.5438 6.49036 10.5848 6.62604 10.6619 6.74158L11.4393 7.90778H2.586C1.93066 7.90778 1.40625 7.38043 1.40625 6.72803V2.586Z" fill="#6C767F"/>
<path d="M3.71558 4.04199H8.23444C8.62262 4.04199 8.93756 3.72705 8.93756 3.33887C8.93756 2.9505 8.62262 2.63574 8.23444 2.63574H3.71558C3.32739 2.63574 3.01245 2.9505 3.01245 3.33887C3.01245 3.72705 3.32721 4.04199 3.71558 4.04199Z" fill="#6C767F"/>
<path d="M3.71558 6.67822H5.9751C6.36328 6.67822 6.67822 6.36328 6.67822 5.9751C6.67822 5.58673 6.36328 5.27197 5.9751 5.27197H3.71558C3.32739 5.27197 3.01245 5.58673 3.01245 5.9751C3.01245 6.36328 3.32721 6.67822 3.71558 6.67822Z" fill="#6C767F"/>
</g>
<defs>
<clipPath id="clip0_715_13729">
<rect width="24" height="24" fill="white"/>
</clipPath>
</defs>
</svg>
